<?xml version="1.0" encoding="UTF-8"?>
<!DOCTYPE svg PUBLIC "-//W3C//DTD SVG 1.1//EN" "http://www.w3.org/Graphics/SVG/1.1/DTD/svg11.dtd">
<!-- Creator: CorelDRAW (Versão de avaliação) -->
<svg xmlns="http://www.w3.org/2000/svg" xml:space="preserve" width="101.6mm" height="101.6mm" version="1.1" style="shape-rendering:geometricPrecision; text-rendering:geometricPrecision; image-rendering:optimizeQuality; fill-rule:evenodd; clip-rule:evenodd"
viewBox="0 0 10159.98 10159.98"
 xmlns:xlink="http://www.w3.org/1999/xlink"
 xmlns:xodm="http://www.corel.com/coreldraw/odm/2003">
 <defs>
  <style type="text/css">
   <![CDATA[
    .fil9 {fill:#21222C}
    .fil8 {fill:#282934}
    .fil7 {fill:#30313E}
    .fil0 {fill:#343746}
    .fil6 {fill:#3A3B4A}
    .fil5 {fill:#BD93F9}
    .fil4 {fill:#FF79C6}
    .fil3 {fill:#FF93D0}
    .fil2 {fill:#FFABD9}
    .fil1 {fill:#FFBFE1}
   ]]>
  </style>
 </defs>
 <g id="Camada_x0020_1">
  <metadata id="CorelCorpID_0Corel-Layer"/>
  <rect class="fil0" x="-0.02" y="-0.01" width="10159.99" height="10159.99" rx="2630.74" ry="2630.74"/>
  <polygon class="fil1" points="3737.12,0 5458.36,2659.47 6639.21,1967.27 5415.11,0 "/>
  <path class="fil2" d="M5479.26 2645.78l-1732.93 -2645.78 -1115.6 0c-177.59,0 -352.72,18.24 -520.7,52.21l2175.41 3375.51 1193.82 -781.94z"/>
  <path class="fil3" d="M4311.47 3410.66l-2199.92 -3358.76c-475.35,96.13 -906.06,322.11 -1252.06,638.04l2246.73 3510.13 1205.25 -789.41z"/>
  <path class="fil4" d="M3143.68 4175.53l-2283.45 -3486.26c-385.68,352.19 -666.96,816.97 -790.52,1340.88l1946.29 2884.01 1127.68 -738.63z"/>
  <path class="fil5" d="M7526.49 3223.57l1003.36 1531.92c228.52,348.9 130.03,821.34 -218.87,1049.85l-1154.45 756.14c-71.01,55.74 -69.95,115.95 -14.69,179.54l1090.35 915.19c401.74,337.19 163.52,1032.88 -275.24,1320.27 -438.77,287.38 -1176.81,229.26 -1320.27,-275.25l-365.89 -1286.87 -23.3 -81.95c-43.81,-93.8 -104.65,-94.29 -171.21,-63.4l-1167.77 764.87c-348.9,228.52 -821.33,130.03 -1049.86,-218.87l-995.97 -1520.64 4663.81 -3070.8zm-118.66 4455.97c268.92,0 486.91,217.99 486.91,486.91 0,268.92 -217.99,486.91 -486.91,486.91 -268.92,0 -486.91,-217.99 -486.91,-486.91 0,-268.92 217.99,-486.91 486.91,-486.91z"/>
  <path class="fil6" d="M6301.31 1353.01c-228.51,-348.89 -700.45,-446.61 -1049.84,-218.87l-555.94 362.38 1649.83 2515.17 1188.51 -776.84 -1232.56 -1881.84z"/>
  <polygon class="fil7" points="6366.07,3999.73 4718.02,1483.54 3530.36,2259.89 4311.31,3410.41 5175.41,4777.81 "/>
  <polygon class="fil8" points="5198.27,4764.61 3550.22,2248.42 2381,3014.12 4008.14,5542.39 "/>
  <path class="fil9" d="M4030.47 5529.49l-1648.04 -2516.2 -533.45 349.4c-348.9,228.52 -447.39,700.94 -218.87,1049.84l1232.56 1881.84 1167.8 -764.88z"/>
 </g>
</svg>
